<svg width="32" height="32" viewBox="0 0 32 32" fill="none" xmlns="http://www.w3.org/2000/svg">
<rect width="32" height="32" rx="16" fill="#161717"/>
<path d="M20.9219 11.4999V18.8124C20.9219 18.9243 20.8774 19.0316 20.7983 19.1107C20.7192 19.1898 20.6119 19.2343 20.5 19.2343C20.3881 19.2343 20.2808 19.1898 20.2017 19.1107C20.1226 19.0316 20.0781 18.9243 20.0781 18.8124V12.5194L11.7953 20.7952C11.717 20.8735 11.6108 20.9175 11.5 20.9175C11.3892 20.9175 11.283 20.8735 11.2047 20.7952C11.1264 20.7169 11.0824 20.6107 11.0824 20.4999C11.0824 20.3891 11.1264 20.2829 11.2047 20.2046L19.4805 11.9218H13.1875C13.0756 11.9218 12.9683 11.8773 12.8892 11.7982C12.8101 11.7191 12.7656 11.6118 12.7656 11.4999C12.7656 11.388 12.8101 11.2807 12.8892 11.2016C12.9683 11.1225 13.0756 11.078 13.1875 11.078H20.5C20.6119 11.078 20.7192 11.1225 20.7983 11.2016C20.8774 11.2807 20.9219 11.388 20.9219 11.4999Z" fill="white"/>
</svg>
