<svg width="153" height="19" viewBox="0 0 153 19" fill="none" xmlns="http://www.w3.org/2000/svg">
<path d="M76.6121 16.3739H71.4921V2.68586H76.6121V16.3739ZM71.9921 15.8739H76.1121V3.18586H71.9921V15.8739ZM83.7361 16.3739H78.7191V2.68586H89.2011C90.7027 2.56426 92.1981 2.98583 93.4151 3.87386C93.939 4.35317 94.3451 4.94705 94.6016 5.60915C94.8582 6.27126 94.9583 6.98369 94.8941 7.69086C94.9689 8.91283 94.58 10.1181 93.8051 11.0659C92.8881 12.1179 91.3621 12.6599 89.2701 12.6789C88.7431 12.6929 84.7941 12.6789 83.7391 12.6789L83.7361 16.3739ZM79.2161 15.8739H83.2361V12.1739H83.4871C83.5381 12.1739 88.6651 12.1899 89.2581 12.1739C91.2071 12.1569 92.6081 11.6739 93.4271 10.7309C94.1169 9.87331 94.4595 8.78801 94.3871 7.68986C94.4486 7.05623 94.3633 6.41695 94.1379 5.8216C93.9124 5.22625 93.5529 4.69083 93.0871 4.25686C91.9587 3.44696 90.5781 3.06679 89.1941 3.18486H79.2191L79.2161 15.8739ZM88.1391 9.60386H83.2021V5.87786H88.1721C88.5244 5.82918 88.8833 5.8703 89.2154 5.99739C89.5476 6.12449 89.8423 6.33344 90.0721 6.60486C90.2806 6.9518 90.3789 7.35384 90.3541 7.75786C90.3728 8.13296 90.2918 8.50633 90.1191 8.83986C89.882 9.12574 89.5753 9.34581 89.2285 9.47891C88.8818 9.61201 88.5066 9.65366 88.1391 9.59986V9.60386ZM83.7021 9.10386H88.1391C88.9591 9.10386 89.4671 8.93286 89.6921 8.58086C89.816 8.32501 89.8721 8.04162 89.8551 7.75786C89.877 7.45992 89.8124 7.162 89.6691 6.89986L89.6631 6.89086C89.4251 6.54086 88.9521 6.37786 88.1721 6.37786H83.7021V9.10386ZM104.019 16.5759C99.5291 16.5759 96.8491 15.4609 95.8281 13.1679C95.661 12.725 95.5476 12.2637 95.4901 11.7939L95.4461 11.5059H100.788L100.823 11.7159C100.864 11.9291 100.955 12.1298 101.087 12.3019C101.298 12.5569 102.002 12.9849 104.338 12.9849C107.146 12.9849 107.146 12.4919 107.146 12.2269C107.146 11.7799 106.821 11.6269 104.531 11.3829L104.096 11.3419C103.234 11.2609 102.144 11.1579 101.646 11.1149C97.4461 10.7349 95.5711 9.42986 95.5711 6.88486C95.5711 4.21186 98.7621 2.48486 103.701 2.48486C107.73 2.48486 110.326 3.54686 111.415 5.64386C111.673 6.13164 111.847 6.65985 111.928 7.20586L111.963 7.48686H106.615L106.593 7.26086C106.572 7.08424 106.497 6.91855 106.377 6.78686C106.177 6.51886 105.545 6.07586 103.583 6.07586C101.174 6.07586 100.842 6.38386 100.842 6.71586C100.842 7.15886 101.603 7.31586 104.042 7.57686C105.059 7.65986 106.694 7.82786 107.254 7.89586C110.775 8.27786 112.346 9.55086 112.346 12.0249C112.347 14.0999 110.902 16.5759 104.019 16.5759ZM96.0301 12.0059C96.0802 12.3357 96.1664 12.6589 96.2871 12.9699C97.2171 15.0589 99.7471 16.0759 104.019 16.0759C107.591 16.0759 111.85 15.3759 111.85 12.0249C111.85 9.83186 110.46 8.74586 107.201 8.39286C106.641 8.32486 105.016 8.15786 104.001 8.07386C101.401 7.79186 100.344 7.64186 100.344 6.71586C100.344 5.75786 101.483 5.57586 103.585 5.57586C105.246 5.57586 106.319 5.87586 106.774 6.48086C106.898 6.62991 106.992 6.80181 107.05 6.98686H111.384C111.297 6.60011 111.159 6.22655 110.974 5.87586C109.974 3.95686 107.531 2.98486 103.703 2.98486C99.0681 2.98486 96.0731 4.51586 96.0731 6.88486C96.0731 9.14486 97.7541 10.2609 101.692 10.6169C102.192 10.6599 103.281 10.7629 104.145 10.8449L104.583 10.8859C106.71 11.1099 107.648 11.2499 107.648 12.2269C107.648 13.2789 106.435 13.4849 104.34 13.4849C102.402 13.4849 101.178 13.1939 100.705 12.6209C100.559 12.4382 100.449 12.2295 100.381 12.0059H96.0301ZM121.846 16.5589C116.626 16.5589 113.746 14.4479 113.746 10.6139V2.68586H118.798V10.6139C118.798 11.9289 119.975 12.6829 122.026 12.6829C123.986 12.6829 125.203 11.8959 125.203 10.6309V2.68586H130.203V11.0339C130.208 14.5449 127.159 16.5589 121.843 16.5589H121.846ZM114.246 3.18586V10.6139C114.246 15.3519 119.004 16.0589 121.846 16.0589C124.784 16.0589 129.711 15.4059 129.711 11.0339V3.18586H125.711V10.6309C125.711 12.1809 124.267 13.1829 122.034 13.1829C119.7 13.1829 118.306 12.2229 118.306 10.6139V3.18586H114.246ZM151.391 16.3739H146.623V10.1939L143.919 16.3739H139.76L137.084 10.2059V16.3739H132.299V2.68586H138.593L141.863 10.2329L145.291 2.68586H151.397L151.391 16.3739ZM147.123 15.8739H150.891V3.18586H145.609L141.847 11.4649L138.261 3.18586H132.795V15.8739H136.58V7.79986L140.08 15.8769H143.58L147.117 7.81186L147.123 15.8739ZM6.97313 2.93586H2.41913V16.1239H15.0031V12.6129H6.97313V2.93586ZM24.1951 2.63586C18.3821 2.63586 15.3251 5.39086 15.3251 9.43586C15.3251 14.0059 18.5341 16.3239 24.1951 16.3239C30.4271 16.3239 33.0481 13.6359 33.0481 9.43586C33.0481 5.17086 30.0911 2.63386 24.1951 2.63386V2.63586ZM24.1781 6.06286C24.5738 6.061 24.9693 6.08404 25.3621 6.13186L20.2711 11.2229C20.0302 10.678 19.9127 10.0865 19.9271 9.49086C19.9271 7.42186 20.9691 6.06086 24.1781 6.06086V6.06286ZM24.1951 12.9509C23.8138 12.9526 23.4328 12.9312 23.0541 12.8869L28.1541 7.78686C28.386 8.32276 28.497 8.90319 28.4791 9.48686C28.4791 11.4999 27.5191 12.9489 24.1951 12.9489V12.9509ZM42.0711 11.1509H46.7581C46.6891 11.4762 46.5453 11.7809 46.3381 12.0409C45.3664 12.8325 44.1263 13.2177 42.8771 13.1159C42.2483 13.1832 41.6125 13.1145 41.0126 12.9145C40.4127 12.7146 39.8627 12.388 39.4001 11.9569C38.9262 11.2618 38.7011 10.427 38.7611 9.58786C38.6844 8.7086 38.9292 7.83138 39.4501 7.11886C40.1051 6.37886 41.2141 6.05986 42.8441 6.05986C43.8812 5.97399 44.917 6.24034 45.7841 6.81586C46.0574 7.03294 46.2617 7.32477 46.3721 7.65586H50.7191C50.6875 7.11033 50.5563 6.57519 50.3321 6.07686C49.2911 3.95986 46.8711 2.69986 42.7561 2.69986C39.1771 2.69986 36.7751 3.79186 35.4481 5.43886C34.5717 6.62822 34.1218 8.0783 34.1711 9.55486C34.1144 11.0649 34.5527 12.552 35.4191 13.7899C36.7301 15.4899 39.0651 16.3259 41.8711 16.3259C43.7366 16.456 45.5894 15.9335 47.1121 14.8479L47.2301 16.1239H50.8411V8.31186H42.0711V11.1509ZM61.0901 2.63286C55.2781 2.63286 52.2201 5.38786 52.2201 9.43286C52.2201 14.0029 55.4281 16.3209 61.0901 16.3209C67.3231 16.3209 69.9441 13.6329 69.9441 9.43286C69.9441 5.17086 66.9871 2.63386 61.0901 2.63386V2.63286ZM61.0741 6.05986C61.4594 6.05872 61.8444 6.08076 62.2271 6.12586L57.1561 11.1999C56.9227 10.661 56.8091 10.078 56.8231 9.49086C56.8191 7.42186 57.8651 6.06086 61.0741 6.06086V6.05986ZM61.0901 12.9479C60.6987 12.9496 60.3076 12.9268 59.9191 12.8799L65.0361 7.76186C65.2768 8.30489 65.392 8.89518 65.3731 9.48886C65.3751 11.4999 64.4191 12.9489 61.0901 12.9489V12.9479Z" fill="#1D1E1F"/>
</svg>
