<svg width="54" height="35" viewBox="0 0 54 35" fill="none" xmlns="http://www.w3.org/2000/svg">
<g clip-path="url(#clip0_4_249)">
<path d="M50.0117 1.09375C50.0117 1.69781 50.5014 2.1875 51.1055 2.1875H52.1992C52.8033 2.1875 53.293 1.69781 53.293 1.09375C53.293 0.489689 52.8033 0 52.1992 0H51.1055C50.5014 0 50.0117 0.489689 50.0117 1.09375Z" fill="#1D1E1F"/>
<path d="M18.293 35H23.6062L22.0594 33.4532C21.6492 33.043 21.0928 32.8125 20.5127 32.8125H18.293C9.83609 32.8125 2.98047 25.9569 2.98047 17.5C2.98047 9.04313 9.83609 2.18751 18.293 2.1875H35.793C44.2498 2.1875 51.1055 9.04313 51.1055 17.5C51.1055 25.9569 44.2498 32.8125 35.793 32.8125H29.2466C28.3763 32.8125 27.5417 32.4668 26.9263 31.8515L25.1142 30.0393C24.0886 29.0137 22.6975 28.4375 21.2471 28.4375H18.293C12.2523 28.4375 7.35547 23.5406 7.35547 17.5C7.35547 11.4593 12.2523 6.5625 18.293 6.5625H35.793C41.8336 6.5625 46.7305 11.4593 46.7305 17.5C46.7305 23.5406 41.8336 28.4375 35.793 28.4375H31.5896C30.7193 28.4375 29.8847 28.0918 29.2693 27.4765L27.4571 25.6643C26.4315 24.6387 25.0405 24.0625 23.5901 24.0625H18.293C14.6686 24.0625 11.7305 21.1243 11.7305 17.5C11.7305 13.8757 14.6686 10.9375 18.293 10.9375H35.793C39.4173 10.9375 42.3555 13.8757 42.3555 17.5C42.3555 21.0802 39.4885 23.9908 35.9253 24.0612L35.9246 24.0625H34.3239C33.4537 24.0625 32.6191 23.7168 32.0037 23.1015L30.1915 21.2893C29.35 20.4477 28.2625 19.9088 27.0979 19.7424L27.043 19.6875H18.293C17.0849 19.6875 16.1055 18.7081 16.1055 17.5C16.1055 16.2919 17.0849 15.3125 18.293 15.3125H35.793C37.0011 15.3125 37.9805 16.2919 37.9805 17.5C37.9805 18.7081 37.0011 19.6875 35.793 19.6875H31.418L32.9648 21.2343C33.375 21.6445 33.9314 21.875 34.5115 21.875H35.793C38.2092 21.875 40.168 19.9162 40.168 17.5C40.168 15.0838 38.2092 13.125 35.793 13.125H18.293C15.8767 13.125 13.918 15.0838 13.918 17.5C13.918 19.9162 15.8767 21.875 18.293 21.875H26.3245C27.1948 21.875 28.0294 22.2207 28.6447 22.836L30.457 24.6482C31.4825 25.6738 32.8735 26.25 34.3239 26.25H36.3398V26.2332C40.9176 25.9509 44.543 22.1488 44.543 17.5C44.543 12.6676 40.6254 8.75 35.793 8.75H18.293C13.4605 8.75 9.54297 12.6676 9.54297 17.5C9.54297 22.3325 13.4605 26.25 18.293 26.25H23.5901C24.4604 26.25 25.295 26.5957 25.9104 27.211L27.7226 29.0232C28.7482 30.0488 30.1392 30.625 31.5896 30.625H35.793C43.0417 30.625 48.918 24.7488 48.918 17.5C48.918 10.2512 43.0417 4.375 35.793 4.375H18.293C11.0442 4.375 5.16797 10.2512 5.16797 17.5C5.16797 24.7488 11.0442 30.625 18.293 30.625H21.2471C22.1174 30.625 22.952 30.9707 23.5674 31.586L25.3796 33.3982C26.4052 34.4238 27.7962 35 29.2466 35H35.793C45.458 35 53.293 27.165 53.293 17.5C53.293 7.83501 45.458 -8.44939e-07 35.793 0L18.293 3.61606e-06C8.62798 4.461e-06 0.792968 7.83502 0.792969 17.5C0.79297 27.165 8.62799 35 18.293 35Z" fill="#1D1E1F"/>
</g>
<defs>
<clipPath id="clip0_4_249">
<rect width="52.5" height="35" fill="white" transform="translate(0.792969)"/>
</clipPath>
</defs>
</svg>
