<svg width="133" height="35" viewBox="0 0 133 35" fill="none" xmlns="http://www.w3.org/2000/svg">
<path d="M31.2523 12.25C31.6123 12.25 31.7323 12.38 31.7323 12.73V20.65H35.8023C36.1523 20.65 36.2823 20.78 36.2823 21.13V21.83C36.2823 22.18 36.1523 22.31 35.8023 22.31H30.4423C30.0923 22.31 29.9523 22.18 29.9523 21.83V12.73C29.9523 12.38 30.0923 12.25 30.4423 12.25H31.2523Z" fill="#1D1E1F"/>
<path d="M39.8323 15.74C39.8323 13.43 41.2923 12.04 43.8323 12.04C46.3723 12.04 47.8323 13.43 47.8323 15.74V18.82C47.8323 21.13 46.3623 22.52 43.8323 22.52C41.3023 22.52 39.8323 21.13 39.8323 18.82V15.74ZM46.1523 15.74C46.1523 14.44 45.3423 13.74 43.8823 13.74C42.4223 13.74 41.6223 14.45 41.6223 15.74V18.84C41.6223 20.15 42.4223 20.84 43.8823 20.84C45.3423 20.84 46.1523 20.12 46.1523 18.84V15.74Z" fill="#1D1E1F"/>
<path d="M59.7423 16.8C60.1323 16.8 60.2223 16.93 60.2223 17.28V19.18C60.2329 19.6275 60.1432 20.0718 59.9598 20.4801C59.7763 20.8885 59.5039 21.2506 59.1623 21.54C58.314 22.2155 57.2444 22.5506 56.1623 22.48C53.5723 22.48 52.1623 21.09 52.1623 18.78V15.68C52.1623 13.4 53.6223 12 56.1623 12C58.1623 12 59.4623 12.79 60.0123 14.37C60.0431 14.4294 60.0596 14.4951 60.0605 14.5619C60.0614 14.6288 60.0467 14.695 60.0176 14.7551C59.9885 14.8153 59.9457 14.8679 59.8927 14.9087C59.8397 14.9494 59.7779 14.9773 59.7123 14.99L58.9323 15.26C58.5923 15.38 58.4523 15.31 58.3323 14.96C58.1666 14.5329 57.8633 14.1731 57.4703 13.9377C57.0773 13.7023 56.6171 13.6045 56.1623 13.66C54.6923 13.66 53.8923 14.37 53.8923 15.66V18.84C53.8923 20.15 54.7023 20.84 56.1623 20.84C57.6223 20.84 58.5223 20.17 58.5223 19.19V18.45H56.3523C55.9923 18.45 55.8623 18.31 55.8623 17.96V17.28C55.8623 16.93 55.9923 16.8 56.3523 16.8H59.7423Z" fill="#1D1E1F"/>
<path d="M64.3523 15.74C64.3523 13.43 65.8123 12.04 68.3523 12.04C70.8923 12.04 72.3523 13.43 72.3523 15.74V18.82C72.3523 21.13 70.8823 22.52 68.3523 22.52C65.8223 22.52 64.3523 21.13 64.3523 18.82V15.74ZM70.6623 15.74C70.6623 14.44 69.8523 13.74 68.4023 13.74C66.9523 13.74 66.1323 14.45 66.1323 15.74V18.84C66.1323 20.15 66.9423 20.84 68.4023 20.84C69.8623 20.84 70.6623 20.12 70.6623 18.84V15.74Z" fill="#1D1E1F"/>
<path d="M77.0623 12.54C77.0623 12.32 77.1323 12.25 77.3523 12.25H77.8123C78.0323 12.25 78.0823 12.32 78.0823 12.54V22.02C78.0823 22.24 78.0823 22.31 77.8123 22.31H77.3523C77.1323 22.31 77.0623 22.24 77.0623 22.02V12.54Z" fill="#1D1E1F"/>
<path d="M87.1923 12.25C88.0251 12.25 88.8237 12.5808 89.4126 13.1697C90.0015 13.7585 90.3323 14.5572 90.3323 15.39C90.3323 16.2228 90.0015 17.0215 89.4126 17.6103C88.8237 18.1992 88.0251 18.53 87.1923 18.53H84.1923V22.02C84.1923 22.24 84.1423 22.31 83.9323 22.31H83.4623C83.2523 22.31 83.1723 22.24 83.1723 22.02V12.54C83.1723 12.32 83.2523 12.25 83.4623 12.25H87.1923ZM87.1023 17.54C87.3886 17.54 87.6721 17.4836 87.9366 17.3741C88.201 17.2645 88.4414 17.1039 88.6438 16.9015C88.8462 16.6991 89.0068 16.4587 89.1164 16.1943C89.2259 15.9298 89.2823 15.6463 89.2823 15.36C89.2823 15.0737 89.2259 14.7902 89.1164 14.5257C89.0068 14.2613 88.8462 14.0209 88.6438 13.8185C88.4414 13.6161 88.201 13.4555 87.9366 13.3459C87.6721 13.2364 87.3886 13.18 87.1023 13.18H84.1023V17.54H87.1023Z" fill="#1D1E1F"/>
<path d="M98.1423 12.0501C98.9144 11.9649 99.6933 12.131 100.364 12.5237C101.033 12.9165 101.559 13.5149 101.862 14.2301C101.942 14.3901 101.862 14.5201 101.702 14.6001L101.262 14.8001C101.082 14.8701 101.012 14.8601 100.902 14.6701C100.676 14.1393 100.286 13.6943 99.79 13.3995C99.2939 13.1047 98.7168 12.9753 98.1423 13.0301C96.4523 13.0301 95.5323 13.7001 95.5323 14.9001C95.5225 15.2668 95.6456 15.6248 95.8791 15.9078C96.1125 16.1908 96.4404 16.3799 96.8023 16.4401C97.3401 16.6155 97.8978 16.723 98.4623 16.7601C99.1456 16.7965 99.8197 16.9347 100.462 17.1701C100.955 17.326 101.379 17.6466 101.663 18.0782C101.947 18.5098 102.074 19.026 102.022 19.5401C102.022 21.4101 100.662 22.5401 98.1623 22.5401C97.3423 22.6339 96.5149 22.4439 95.818 22.0017C95.1211 21.5596 94.5967 20.8919 94.3323 20.1101C94.3146 20.0745 94.3051 20.0354 94.3043 19.9956C94.3035 19.9558 94.3116 19.9164 94.3278 19.8801C94.344 19.8438 94.3681 19.8115 94.3983 19.7856C94.4284 19.7596 94.4639 19.7407 94.5023 19.7301L94.9423 19.5701C94.9769 19.5559 95.0142 19.5491 95.0516 19.5501C95.089 19.5511 95.1258 19.5599 95.1597 19.5759C95.1935 19.5919 95.2237 19.6147 95.2482 19.643C95.2728 19.6713 95.2912 19.7043 95.3023 19.7401C95.526 20.305 95.9238 20.784 96.438 21.1077C96.9522 21.4313 97.5562 21.5828 98.1623 21.5401C100.052 21.5401 100.982 20.8801 100.982 19.5401C101 19.1879 100.892 18.8408 100.678 18.5606C100.464 18.2805 100.157 18.0854 99.8123 18.0101C99.2949 17.8558 98.7613 17.7618 98.2223 17.7301L97.1423 17.5901C96.8043 17.5184 96.4705 17.4282 96.1423 17.3201C95.8181 17.2222 95.5159 17.0626 95.2523 16.8501C94.987 16.6099 94.7779 16.3143 94.6396 15.9842C94.5014 15.6541 94.4374 15.2977 94.4523 14.9401C94.5223 13.1901 95.8323 12.0501 98.1423 12.0501Z" fill="#1D1E1F"/>
<path d="M107.412 18.89C107.454 19.5972 107.765 20.2615 108.281 20.7472C108.797 21.2329 109.479 21.5033 110.187 21.5033C110.895 21.5033 111.577 21.2329 112.093 20.7472C112.609 20.2615 112.919 19.5972 112.962 18.89V12.54C112.962 12.32 113.032 12.25 113.252 12.25H113.712C113.932 12.25 114.002 12.32 114.002 12.54V18.88C114.002 21.15 112.662 22.52 110.192 22.52C107.722 22.52 106.382 21.15 106.382 18.88V12.54C106.382 12.32 106.452 12.25 106.662 12.25H107.132C107.342 12.25 107.412 12.32 107.412 12.54V18.89Z" fill="#1D1E1F"/>
<path d="M127.802 12.2502C128.022 12.2502 128.092 12.3202 128.092 12.5402V22.0202C128.092 22.2402 128.022 22.3102 127.802 22.3102H127.382C127.172 22.3102 127.102 22.2402 127.102 22.0202V16.2502C127.102 15.4107 127.159 14.5721 127.272 13.7402H127.212C126.9 14.5009 126.535 15.2393 126.122 15.9502L123.972 19.7402C123.946 19.806 123.9 19.8622 123.841 19.9015C123.782 19.9407 123.713 19.9612 123.642 19.9602H123.362C123.29 19.9606 123.22 19.9399 123.159 19.9009C123.099 19.8618 123.051 19.806 123.022 19.7402L120.842 15.9102C120.455 15.2095 120.121 14.4808 119.842 13.7302H119.782C119.884 14.5697 119.938 15.4145 119.942 16.2602V22.0202C119.942 22.2402 119.872 22.3102 119.652 22.3102H119.262C119.042 22.3102 118.972 22.2402 118.972 22.0202V12.5402C118.972 12.3202 119.042 12.2502 119.262 12.2502H119.622C119.704 12.2426 119.787 12.2605 119.858 12.3017C119.93 12.3429 119.987 12.4053 120.022 12.4802L123.522 18.7002L127.002 12.5402C127.112 12.3302 127.172 12.3002 127.392 12.3002L127.802 12.2502Z" fill="#1D1E1F"/>
<path d="M13.4623 20.79V28.02C13.4623 28.2972 13.3522 28.563 13.1562 28.7589C12.9603 28.9549 12.6945 29.065 12.4173 29.065C12.1402 29.065 11.8744 28.9549 11.6784 28.7589C11.4824 28.563 11.3723 28.2972 11.3723 28.02V20.8C11.6633 21.0125 12.0121 21.1311 12.3723 21.14C12.7649 21.1512 13.1496 21.0277 13.4623 20.79ZM22.3623 18.7C22.0971 18.7 21.8427 18.8054 21.6552 18.9929C21.4677 19.1804 21.3623 19.4348 21.3623 19.7V20.96C21.3623 21.2372 21.4724 21.503 21.6684 21.6989C21.8643 21.8949 22.1301 22.005 22.4073 22.005C22.6845 22.005 22.9503 21.8949 23.1462 21.6989C23.3422 21.503 23.4523 21.2372 23.4523 20.96V19.75C23.4601 19.6066 23.4369 19.4632 23.3843 19.3296C23.3317 19.196 23.251 19.0752 23.1475 18.9756C23.0441 18.876 22.9204 18.7998 22.785 18.7522C22.6495 18.7047 22.5053 18.6869 22.3623 18.7ZM9.1023 23.53C8.74247 23.5192 8.39413 23.4008 8.1023 23.19V30.44C8.1023 30.7185 8.21292 30.9856 8.40984 31.1825C8.60675 31.3794 8.87382 31.49 9.1523 31.49C9.43078 31.49 9.69785 31.3794 9.89476 31.1825C10.0917 30.9856 10.2023 30.7185 10.2023 30.44V23.24C9.87575 23.4511 9.49046 23.5527 9.1023 23.53ZM19.1023 16.53C18.9668 16.5232 18.8314 16.5441 18.7042 16.5913C18.5771 16.6385 18.4609 16.7111 18.3626 16.8046C18.2644 16.8982 18.1863 17.0107 18.1329 17.1354C18.0796 17.2601 18.0521 17.3944 18.0523 17.53V23.1C18.0523 23.3785 18.1629 23.6456 18.3598 23.8425C18.5568 24.0394 18.8238 24.15 19.1023 24.15C19.3808 24.15 19.6479 24.0394 19.8448 23.8425C20.0417 23.6456 20.1523 23.3785 20.1523 23.1V17.6C20.1603 17.4557 20.1369 17.3114 20.0837 17.177C20.0305 17.0426 19.9489 16.9213 19.8443 16.8215C19.7397 16.7217 19.6148 16.6457 19.4781 16.5989C19.3414 16.552 19.1961 16.5353 19.0523 16.55L19.1023 16.53ZM15.7823 18.67C15.4056 18.6674 15.039 18.5487 14.7323 18.33V25.6C14.7323 25.8785 14.8429 26.1456 15.0398 26.3425C15.2368 26.5394 15.5038 26.65 15.7823 26.65C16.0608 26.65 16.3278 26.5394 16.5248 26.3425C16.7217 26.1456 16.8323 25.8785 16.8323 25.6V18.34C16.5151 18.5763 16.1278 18.6995 15.7323 18.69L15.7823 18.67ZM6.8323 24.24V3.93C6.82967 3.68243 6.72947 3.44591 6.55347 3.27178C6.37747 3.09765 6.13988 2.99999 5.8923 3H5.6723C5.42472 2.99999 5.18713 3.09765 5.01113 3.27178C4.83513 3.44591 4.73493 3.68243 4.7323 3.93V24.24C4.7323 24.4893 4.83134 24.7284 5.00762 24.9047C5.1839 25.081 5.423 25.18 5.6723 25.18H5.8923C6.14161 25.18 6.3807 25.081 6.55698 24.9047C6.73327 24.7284 6.8323 24.4893 6.8323 24.24ZM9.2123 22.76H8.9923C8.743 22.76 8.5039 22.661 8.32762 22.4847C8.15134 22.3084 8.0523 22.0693 8.0523 21.82V6.35C8.05494 6.10244 8.15513 5.8659 8.33113 5.69178C8.50713 5.51765 8.74472 5.41999 8.9923 5.42H9.2123C9.45988 5.41999 9.69747 5.51765 9.87347 5.69178C10.0495 5.8659 10.1497 6.10244 10.1523 6.35V21.84C10.1523 22.0893 10.0533 22.3284 9.87698 22.5047C9.7007 22.681 9.4616 22.78 9.2123 22.78V22.76ZM12.5223 20.38H12.2923C12.0457 20.38 11.8091 20.282 11.6347 20.1076C11.4603 19.9332 11.3623 19.6967 11.3623 19.45V8.75C11.361 8.62703 11.3841 8.50502 11.4302 8.39103C11.4763 8.27704 11.5446 8.17334 11.6311 8.08592C11.7176 7.9985 11.8206 7.9291 11.9341 7.88174C12.0476 7.83438 12.1693 7.80999 12.2923 7.81H12.5223C12.7699 7.81264 13.0064 7.91283 13.1805 8.08883C13.3547 8.26483 13.4523 8.50242 13.4523 8.75V19.45C13.4523 19.6967 13.3543 19.9332 13.1799 20.1076C13.0055 20.282 12.769 20.38 12.5223 20.38ZM15.8323 17.93H15.6223C15.3747 17.93 15.1371 17.8324 14.9611 17.6582C14.7851 17.4841 14.6849 17.2476 14.6823 17V11.24C14.6741 11.1116 14.6923 10.9829 14.7359 10.8618C14.7794 10.7408 14.8474 10.6299 14.9355 10.5362C15.0236 10.4424 15.13 10.3678 15.2482 10.3168C15.3663 10.2659 15.4936 10.2397 15.6223 10.24H15.8423C16.0916 10.24 16.3307 10.339 16.507 10.5153C16.6833 10.6916 16.7823 10.9307 16.7823 11.18V16.98C16.7836 17.1043 16.7603 17.2276 16.7136 17.3428C16.667 17.458 16.598 17.5628 16.5105 17.6512C16.4231 17.7395 16.3191 17.8096 16.2043 17.8575C16.0896 17.9054 15.9666 17.93 15.8423 17.93H15.8323ZM19.1523 15.78H18.9323C18.683 15.78 18.4439 15.681 18.2676 15.5047C18.0913 15.3284 17.9923 15.0893 17.9923 14.84V13.35C17.9949 13.1024 18.0951 12.8659 18.2711 12.6918C18.4471 12.5176 18.6847 12.42 18.9323 12.42H19.1523C19.3999 12.42 19.6375 12.5176 19.8135 12.6918C19.9895 12.8659 20.0897 13.1024 20.0923 13.35V14.84C20.0923 15.0876 19.9947 15.3252 19.8205 15.5012C19.6464 15.6772 19.4099 15.7774 19.1623 15.78H19.1523Z" fill="#1D1E1F"/>
</svg>
