<svg width="141" height="31" viewBox="0 0 141 31" fill="none" xmlns="http://www.w3.org/2000/svg">
<path d="M23.3988 13.8708C23.0198 14.2521 22.7296 14.7123 22.5488 15.2185C22.368 15.7248 22.3011 16.2647 22.3528 16.7998L22.3348 16.7818C22.388 17.4117 22.303 18.0455 22.0859 18.6392C21.8688 19.2328 21.5248 19.7719 21.0779 20.2189C20.6309 20.6658 20.0918 21.0099 19.4981 21.2269C18.9045 21.444 18.2706 21.529 17.6408 21.4758L17.6588 21.4938C16.9054 21.4237 16.1487 21.5876 15.4918 21.9633C14.835 22.339 14.31 22.9081 13.9885 23.5931C13.667 24.2781 13.5645 25.0455 13.6951 25.7909C13.8258 26.5362 14.1831 27.2231 14.7184 27.7579C15.2537 28.2927 15.9409 28.6494 16.6863 28.7793C17.4318 28.9093 18.1991 28.8061 18.8838 28.484C19.5685 28.1618 20.1371 27.6364 20.5122 26.9792C20.8873 26.322 21.0506 25.5652 20.9798 24.8118L20.9988 24.8298C20.9456 24.2 21.0305 23.5661 21.2476 22.9724C21.4647 22.3788 21.8088 21.8397 22.2557 21.3927C22.7027 20.9458 23.2418 20.6017 23.8354 20.3847C24.4291 20.1676 25.0629 20.0826 25.6928 20.1358L25.6738 20.1178C26.2892 20.1731 26.9087 20.0722 27.4748 19.8244C28.0408 19.5766 28.5352 19.1899 28.912 18.7002C29.2888 18.2105 29.536 17.6335 29.6304 17.0229C29.7249 16.4122 29.6637 15.7876 29.4525 15.2068C29.2413 14.6261 28.8869 14.1081 28.4222 13.7008C27.9575 13.2935 27.3975 13.0101 26.7941 12.8769C26.1907 12.7437 25.5634 12.7649 24.9704 12.9386C24.3774 13.1124 23.8379 13.433 23.4018 13.8708H23.3988Z" fill="#1D1E1F"/>
<path d="M16.0218 19.1362L16.0028 19.1182C16.5381 19.1721 17.0787 19.1064 17.5856 18.9258C18.0924 18.7452 18.5528 18.4543 18.9334 18.074C19.3139 17.6937 19.6053 17.2335 19.7862 16.7268C19.9672 16.2201 20.0333 15.6796 19.9798 15.1442L19.9988 15.1622C19.9456 14.5323 20.0306 13.8985 20.2476 13.3048C20.4647 12.7112 20.8088 12.1721 21.2557 11.7251C21.7027 11.2782 22.2418 10.9341 22.8354 10.7171C23.4291 10.5 24.0629 10.4151 24.6928 10.4682L24.6738 10.4502C25.4273 10.521 26.1842 10.3576 26.8414 9.98234C27.4987 9.60708 28.0241 9.03821 28.3461 8.35334C28.6681 7.66848 28.771 6.90095 28.6408 6.15544C28.5106 5.40993 28.1536 4.72275 27.6184 4.18761C27.0833 3.65248 26.3961 3.29544 25.6506 3.16522C24.9051 3.03499 24.1376 3.1379 23.4527 3.45992C22.7678 3.78193 22.199 4.30738 21.8237 4.96459C21.4484 5.62179 21.285 6.37876 21.3558 7.13224L21.3378 7.11324C21.3911 7.74313 21.3063 8.37707 21.0893 8.97079C20.8723 9.56451 20.5282 10.1037 20.0813 10.5507C19.6343 10.9976 19.0951 11.3417 18.5014 11.5587C17.9076 11.7757 17.2737 11.8605 16.6438 11.8072L16.6618 11.8262C16.1265 11.7723 15.5858 11.838 15.079 12.0186C14.5722 12.1991 14.1118 12.4901 13.7312 12.8704C13.3506 13.2507 13.0593 13.7109 12.8783 14.2176C12.6974 14.7243 12.6313 15.2648 12.6848 15.8002L12.6668 15.7822C12.7198 16.412 12.6347 17.0458 12.4176 17.6394C12.2004 18.2329 11.8564 18.772 11.4095 19.2189C10.9625 19.6658 10.4235 20.0098 9.82993 20.227C9.23637 20.4441 8.60258 20.5292 7.97277 20.4762L7.99077 20.4942C7.23729 20.4234 6.48032 20.5868 5.82311 20.9621C5.16591 21.3374 4.64046 21.9062 4.31845 22.5911C3.99643 23.276 3.89351 24.0435 4.02374 24.789C4.15397 25.5345 4.51101 26.2217 5.04614 26.7568C5.58128 27.292 6.26846 27.649 7.01397 27.7792C7.75948 27.9094 8.52701 27.8065 9.21188 27.4845C9.89674 27.1625 10.4656 26.6371 10.8409 25.9799C11.2162 25.3226 11.3796 24.5657 11.3088 23.8122L11.3278 23.8302C11.2746 23.2003 11.3596 22.5665 11.5767 21.9728C11.7937 21.3792 12.1378 20.8401 12.5847 20.3931C13.0317 19.9462 13.5708 19.6021 14.1644 19.3851C14.7581 19.168 15.3919 19.083 16.0218 19.1362Z" fill="#1D1E1F"/>
<path d="M9.3197 17.1289C9.69872 16.7477 9.9889 16.2875 10.1695 15.7812C10.3502 15.2749 10.4168 14.7349 10.3647 14.1999L10.3837 14.2179C10.3305 13.5879 10.4155 12.9538 10.6327 12.36C10.8499 11.7662 11.1941 11.227 11.6413 10.78C12.0885 10.3331 12.6278 9.98907 13.2217 9.77212C13.8156 9.55516 14.4497 9.47046 15.0797 9.52394L15.0607 9.50594C15.8139 9.57651 16.5706 9.41302 17.2275 9.03778C17.8844 8.66255 18.4095 8.09382 18.7314 7.40917C19.0532 6.72451 19.156 5.95726 19.0258 5.21203C18.8956 4.4668 18.5386 3.77988 18.0037 3.24494C17.4688 2.71 16.7818 2.35308 16.0366 2.22286C15.2914 2.09263 14.5241 2.19545 13.8395 2.51727C13.1548 2.83909 12.5861 3.36426 12.2109 4.02116C11.8356 4.67806 11.6721 5.43472 11.7427 6.18794L11.7247 6.16994C11.7779 6.79979 11.6929 7.43366 11.4758 8.0273C11.2587 8.62094 10.9147 9.16005 10.4678 9.60701C10.0208 10.054 9.48169 10.398 8.88805 10.615C8.29441 10.8321 7.66055 10.9171 7.0307 10.8639L7.0487 10.8819C6.43327 10.8267 5.81386 10.9278 5.24788 11.1757C4.6819 11.4236 4.18765 11.8104 3.81094 12.3002C3.43423 12.7899 3.18725 13.3669 3.09287 13.9775C2.9985 14.5882 3.05979 15.2128 3.27106 15.7934C3.48233 16.3741 3.83676 16.892 4.30149 17.2992C4.76622 17.7065 5.32622 17.9898 5.9296 18.123C6.53297 18.2561 7.1602 18.2348 7.75317 18.0611C8.34613 17.8873 8.88563 17.5667 9.32169 17.1289H9.3197Z" fill="#1D1E1F"/>
<path d="M40.2968 7.15479H43.2668V21.6078H40.2968V7.15479Z" fill="#1D1E1F"/>
<path d="M44.9488 16.6591C44.9447 15.6205 45.2489 14.6039 45.8229 13.7383C46.3969 12.8727 47.2148 12.1969 48.1732 11.7966C49.1316 11.3962 50.1872 11.2893 51.2064 11.4894C52.2256 11.6895 53.1625 12.1875 53.8984 12.9205C54.6343 13.6534 55.1361 14.5883 55.3403 15.6067C55.5445 16.6251 55.4418 17.6812 55.0454 18.6412C54.6489 19.6011 53.9763 20.4219 53.113 20.9993C52.2496 21.5768 51.2344 21.8851 50.1957 21.8851C49.5063 21.893 48.8222 21.7633 48.1834 21.5037C47.5446 21.2441 46.964 20.8598 46.4755 20.3733C45.9869 19.8867 45.6004 19.3076 45.3382 18.6699C45.076 18.0322 44.9437 17.3486 44.9488 16.6591ZM52.4727 16.6591C52.4603 16.2114 52.3162 15.7773 52.0585 15.411C51.8007 15.0448 51.4407 14.7626 51.0235 14.5999C50.6062 14.4371 50.1503 14.4009 49.7126 14.4959C49.2749 14.5909 48.8749 14.8127 48.5626 15.1338C48.2504 15.4548 48.0396 15.8608 47.9569 16.301C47.8741 16.7411 47.9228 17.1959 48.0971 17.6085C48.2714 18.0211 48.5635 18.3731 48.9367 18.6206C49.3099 18.8681 49.7479 19.0001 50.1957 19.0001C50.5024 19.0083 50.8075 18.9528 51.0918 18.8372C51.376 18.7216 51.6332 18.5484 51.8471 18.3285C52.061 18.1085 52.2271 17.8466 52.3347 17.5593C52.4424 17.272 52.4894 16.9655 52.4727 16.6591Z" fill="#1D1E1F"/>
<path d="M67.2798 11.7088V21.1088C67.2798 24.4348 64.6858 25.8408 62.0528 25.8408C61.1258 25.9102 60.1975 25.7229 59.3698 25.2996C58.5422 24.8762 57.8471 24.2331 57.3608 23.4408L59.8948 21.9758C60.0992 22.3888 60.4249 22.7295 60.8282 22.9524C61.2316 23.1752 61.6934 23.2696 62.1518 23.2228C62.4448 23.2634 62.7432 23.2376 63.0249 23.1473C63.3065 23.057 63.5643 22.9045 63.7791 22.7012C63.9939 22.4978 64.1602 22.2488 64.2658 21.9724C64.3713 21.6961 64.4133 21.3996 64.3888 21.1048V20.1998C64.041 20.6253 63.5984 20.9634 63.0963 21.1869C62.5942 21.4104 62.0468 21.5131 61.4978 21.4868C60.1916 21.4456 58.9527 20.8978 58.0433 19.9592C57.1339 19.0207 56.6254 17.7651 56.6254 16.4583C56.6254 15.1515 57.1339 13.8959 58.0433 12.9574C58.9527 12.0188 60.1916 11.471 61.4978 11.4298C62.0468 11.4035 62.5942 11.5062 63.0963 11.7297C63.5984 11.9532 64.041 12.2913 64.3888 12.7168V11.7068L67.2798 11.7088ZM64.3898 16.4598C64.4098 15.9812 64.286 15.5075 64.0345 15.0998C63.783 14.692 63.4152 14.3689 62.9785 14.172C62.5418 13.975 62.0562 13.9133 61.5841 13.9947C61.112 14.0761 60.6751 14.2969 60.3295 14.6288C59.984 14.9606 59.7457 15.3882 59.6452 15.8566C59.5448 16.325 59.5868 16.8128 59.766 17.2571C59.9451 17.7014 60.2531 18.082 60.6503 18.3498C61.0475 18.6176 61.5158 18.7604 61.9948 18.7598C62.3069 18.7816 62.62 18.7378 62.9141 18.6312C63.2082 18.5246 63.4767 18.3575 63.7023 18.1409C63.9279 17.9242 64.1057 17.6627 64.2241 17.3731C64.3425 17.0836 64.399 16.7725 64.3898 16.4598Z" fill="#1D1E1F"/>
<path d="M68.9617 16.6591C68.9576 15.6205 69.2617 14.6039 69.8358 13.7383C70.4098 12.8727 71.2278 12.1969 72.1862 11.7966C73.1446 11.3962 74.2002 11.2893 75.2194 11.4894C76.2386 11.6895 77.1755 12.1875 77.9114 12.9205C78.6473 13.6534 79.1491 14.5883 79.3533 15.6067C79.5575 16.6251 79.4548 17.6812 79.0583 18.6412C78.6618 19.6011 77.9893 20.4219 77.126 20.9993C76.2626 21.5768 75.2474 21.8851 74.2087 21.8851C73.5193 21.893 72.8351 21.7633 72.1964 21.5037C71.5576 21.2441 70.977 20.8598 70.4885 20.3733C69.9999 19.8867 69.6133 19.3076 69.3512 18.6699C69.089 18.0322 68.9566 17.3486 68.9617 16.6591ZM76.4857 16.6591C76.4733 16.2114 76.3292 15.7773 76.0715 15.411C75.8137 15.0448 75.4537 14.7626 75.0365 14.5999C74.6192 14.4371 74.1632 14.4009 73.7256 14.4959C73.2879 14.5909 72.8879 14.8127 72.5756 15.1338C72.2634 15.4548 72.0526 15.8608 71.9698 16.301C71.887 16.7411 71.9358 17.1959 72.1101 17.6085C72.2844 18.0211 72.5764 18.3731 72.9496 18.6206C73.3229 18.8681 73.7608 19.0001 74.2087 19.0001C74.5154 19.0083 74.8205 18.9528 75.1047 18.8372C75.389 18.7216 75.6462 18.5484 75.8601 18.3285C76.074 18.1085 76.2401 17.8466 76.3477 17.5593C76.4554 17.272 76.5024 16.9655 76.4857 16.6591Z" fill="#1D1E1F"/>
<path d="M80.8407 9.05593C80.8407 8.70348 80.9452 8.35895 81.141 8.06591C81.3368 7.77286 81.6152 7.54445 81.9408 7.40958C82.2664 7.2747 82.6247 7.23941 82.9704 7.30817C83.316 7.37693 83.6336 7.54665 83.8828 7.79587C84.132 8.04508 84.3017 8.3626 84.3705 8.70828C84.4392 9.05395 84.4039 9.41225 84.2691 9.73787C84.1342 10.0635 83.9058 10.3418 83.6127 10.5376C83.3197 10.7334 82.9752 10.8379 82.6227 10.8379C82.1516 10.8332 81.701 10.644 81.3678 10.3108C81.0347 9.97763 80.8454 9.52709 80.8407 9.05593ZM81.1407 11.7089H84.1117V21.6089H81.1367L81.1407 11.7089Z" fill="#1D1E1F"/>
<path d="M96.9358 16.6588C96.9701 17.3131 96.8748 17.9677 96.6552 18.585C96.4357 19.2023 96.0963 19.7701 95.6565 20.2558C95.2168 20.7414 94.6853 21.1354 94.0928 21.415C93.5002 21.6945 92.8583 21.8542 92.2038 21.8848C91.6534 21.9148 91.1033 21.822 90.5932 21.6131C90.0831 21.4041 89.626 21.0843 89.2548 20.6768V25.5678H86.2848V11.7088H89.2548V12.6388C89.6261 12.2316 90.0834 11.912 90.5934 11.7033C91.1035 11.4945 91.6535 11.4018 92.2038 11.4318C92.8584 11.4623 93.5005 11.6219 94.0932 11.9015C94.6859 12.1811 95.2174 12.5751 95.6572 13.0609C96.097 13.5467 96.4364 14.1147 96.6558 14.7322C96.8752 15.3496 96.9704 16.0044 96.9358 16.6588ZM93.9658 16.6588C93.9542 16.1955 93.8062 15.7459 93.5403 15.3662C93.2744 14.9866 92.9025 14.6938 92.4711 14.5246C92.0396 14.3553 91.5678 14.317 91.1147 14.4146C90.6616 14.5121 90.2474 14.7411 89.9238 15.0729C89.6002 15.4048 89.3817 15.8246 89.2956 16.2801C89.2095 16.7355 89.2596 17.2061 89.4397 17.6332C89.6197 18.0603 89.9218 18.4247 90.308 18.681C90.6942 18.9372 91.1473 19.0739 91.6108 19.0738C91.929 19.088 92.2466 19.0347 92.5428 18.9175C92.8389 18.8004 93.107 18.6219 93.3293 18.3939C93.5517 18.1658 93.7233 17.8934 93.833 17.5944C93.9427 17.2954 93.988 16.9765 93.9658 16.6588Z" fill="#1D1E1F"/>
<path d="M106.101 18.6379C106.101 20.9149 104.122 21.8849 101.984 21.8849C101.12 21.9631 100.252 21.7805 99.4935 21.3604C98.7346 20.9404 98.1192 20.3024 97.7267 19.5289L100.3 18.0639C100.404 18.4214 100.627 18.7325 100.933 18.945C101.239 19.1576 101.609 19.2589 101.98 19.2319C102.692 19.2319 103.049 19.0139 103.049 18.6189C103.049 17.5289 98.1777 18.1039 98.1777 14.6789C98.1777 12.5199 99.9997 11.4319 102.059 11.4319C102.833 11.4074 103.599 11.591 104.278 11.9635C104.957 12.3361 105.524 12.8839 105.919 13.5499L103.385 14.9159C103.274 14.6566 103.089 14.4357 102.853 14.2808C102.617 14.1259 102.341 14.0439 102.059 14.0449C101.544 14.0449 101.227 14.2449 101.227 14.5989C101.231 15.7279 106.101 14.9749 106.101 18.6379Z" fill="#1D1E1F"/>
<path d="M116.95 11.709V21.609H113.98V20.678C113.637 21.0888 113.202 21.4125 112.71 21.6225C112.218 21.8325 111.684 21.9228 111.15 21.886C109.15 21.886 107.45 20.461 107.45 17.786V11.709H110.42V17.351C110.395 17.5868 110.422 17.8252 110.499 18.0495C110.575 18.2739 110.7 18.4789 110.864 18.6502C111.028 18.8215 111.227 18.955 111.448 19.0415C111.668 19.128 111.905 19.1654 112.142 19.151C113.231 19.151 113.983 18.518 113.983 17.112V11.712L116.95 11.709Z" fill="#1D1E1F"/>
<path d="M133.98 15.5302V21.6082H131.01V15.7872C131.01 14.7972 130.535 14.1642 129.585 14.1642C128.595 14.1642 128.04 14.8572 128.04 16.0252V21.6082H125.071V15.7872C125.071 14.7972 124.596 14.1642 123.645 14.1642C122.655 14.1642 122.101 14.8572 122.101 16.0252V21.6082H119.131V11.7082H122.101V12.6182C122.409 12.2145 122.813 11.8943 123.276 11.687C123.74 11.4796 124.248 11.3917 124.754 11.4312C125.262 11.4063 125.768 11.5136 126.223 11.7425C126.677 11.9713 127.064 12.3141 127.347 12.7372C127.676 12.2945 128.112 11.9425 128.614 11.7141C129.116 11.4857 129.668 11.3884 130.218 11.4312C132.491 11.4322 133.98 13.0552 133.98 15.5302Z" fill="#1D1E1F"/>
<path d="M136.492 11.6482C137.709 11.6482 138.696 10.6614 138.696 9.44423C138.696 8.22699 137.709 7.24023 136.492 7.24023C135.275 7.24023 134.288 8.22699 134.288 9.44423C134.288 10.6614 135.275 11.6482 136.492 11.6482Z" fill="#1D1E1F"/>
</svg>
