<svg width="79" height="31" viewBox="0 0 79 31" fill="none" xmlns="http://www.w3.org/2000/svg">
<g clip-path="url(#clip0_4_252)">
<path d="M18.6207 0.5C15.5746 0.5 12.6533 1.71005 10.4994 3.86396L3.46992 10.8934C1.31601 13.0473 0.105957 15.9686 0.105957 19.0147C0.105957 25.3579 5.2481 30.5 11.5913 30.5C14.6374 30.5 17.5587 29.2899 19.7126 27.136L24.5749 22.2737C24.5749 22.2736 24.575 22.2738 24.5749 22.2737L38.742 8.1066C39.7707 7.07791 41.1659 6.5 42.6207 6.5C45.0563 6.5 47.1212 8.08741 47.8371 10.2841L52.3082 5.81296C50.2685 2.61834 46.692 0.5 42.6207 0.5C39.5746 0.5 36.6533 1.71005 34.4994 3.86396L15.47 22.8934C14.4413 23.9221 13.0461 24.5 11.5913 24.5C8.5618 24.5 6.10596 22.0442 6.10596 19.0147C6.10596 17.5599 6.68387 16.1647 7.71256 15.136L14.742 8.1066C15.7707 7.07791 17.1659 6.5 18.6207 6.5C21.0564 6.5 23.1212 8.08748 23.8371 10.2842L28.3083 5.81307C26.2686 2.6184 22.6921 0.5 18.6207 0.5Z" fill="#1D1E1F"/>
<path d="M39.47 22.8934C38.4413 23.9221 37.0461 24.5 35.5913 24.5C33.156 24.5 31.0913 22.913 30.3752 20.7167L25.9042 25.1877C27.944 28.3819 31.5203 30.5 35.5913 30.5C38.6374 30.5 41.5587 29.2899 43.7126 27.136L62.742 8.1066C63.7707 7.07791 65.1659 6.5 66.6207 6.5C69.6502 6.5 72.106 8.95584 72.106 11.9853C72.106 13.4401 71.5281 14.8353 70.4994 15.864L63.47 22.8934C62.4413 23.9221 61.0461 24.5 59.5913 24.5C57.1558 24.5 55.091 22.9127 54.375 20.7162L49.904 25.1873C51.9437 28.3818 55.5201 30.5 59.5913 30.5C62.6374 30.5 65.5587 29.2899 67.7126 27.136L74.742 20.1066C76.8959 17.9527 78.106 15.0314 78.106 11.9853C78.106 5.64214 72.9639 0.5 66.6207 0.5C63.5746 0.5 60.6533 1.71005 58.4994 3.86396L39.47 22.8934Z" fill="#1D1E1F"/>
</g>
<defs>
<clipPath id="clip0_4_252">
<rect width="78" height="30" fill="white" transform="translate(0.105957 0.5)"/>
</clipPath>
</defs>
</svg>
